<svg width="40" height="31" viewBox="0 0 40 31" fill="none" xmlns="http://www.w3.org/2000/svg">
<path d="M10.2299 30.5C8.4674 30.5 7.01146 30.1552 5.86204 29.4655C4.71261 28.7759 3.75476 27.8563 2.98847 26.7069C2.22219 25.4808 1.64748 24.1015 1.26434 22.569C0.957822 21.0364 0.804565 19.6571 0.804565 18.431C0.804565 14.6762 1.76242 11.228 3.67813 8.08621C5.67047 4.94444 8.69729 2.41571 12.7586 0.5L13.7931 2.56897C11.4942 3.56514 9.50188 5.0977 7.81606 7.16667C6.13024 9.23563 5.2107 11.3429 5.05744 13.4885C4.90418 14.6379 4.98081 15.7107 5.28732 16.7069C6.66663 15.4042 8.35246 14.7529 10.3448 14.7529C12.567 14.7529 14.4444 15.4808 15.977 16.9368C17.5095 18.3161 18.2758 20.2318 18.2758 22.6839C18.2758 24.9828 17.4712 26.8602 15.862 28.3161C14.3295 29.772 12.4521 30.5 10.2299 30.5ZM31.1494 30.5C29.3869 30.5 27.931 30.1552 26.7816 29.4655C25.6322 28.7759 24.6743 27.8563 23.908 26.7069C23.1417 25.4808 22.567 24.1015 22.1839 22.569C21.8774 21.0364 21.7241 19.6571 21.7241 18.431C21.7241 14.6762 22.682 11.228 24.5977 8.08621C26.59 4.94444 29.6168 2.41571 33.6781 0.5L34.7126 2.56897C32.4138 3.56514 30.4214 5.0977 28.7356 7.16667C27.0498 9.23563 26.1302 11.3429 25.977 13.4885C25.8237 14.6379 25.9004 15.7107 26.2069 16.7069C27.5862 15.4042 29.272 14.7529 31.2643 14.7529C33.4866 14.7529 35.364 15.4808 36.8965 16.9368C38.4291 18.3161 39.1954 20.2318 39.1954 22.6839C39.1954 24.9828 38.3908 26.8602 36.7816 28.3161C35.249 29.772 33.3716 30.5 31.1494 30.5Z" fill="#D43129"/>
</svg>
