<svg width="20" height="20" viewBox="0 0 20 20" fill="none" xmlns="http://www.w3.org/2000/svg">
<path d="M0.498535 19.5033L1.84106 14.6229C1.01282 13.1947 0.577273 11.574 0.577771 9.91415C0.580263 4.72112 4.82411 0.496231 10.0397 0.496231C12.5708 0.497224 14.9459 1.47827 16.7324 3.25824C18.5184 5.03871 19.5022 7.40473 19.5012 9.9216C19.4992 15.1146 15.2543 19.34 10.0397 19.34H10.0357C8.45251 19.3395 6.8962 18.944 5.51431 18.1932L0.498535 19.5033Z" fill="white"/>
<path d="M0.498585 19.7514C0.432804 19.7514 0.369017 19.7256 0.321675 19.6779C0.259383 19.6149 0.234964 19.5231 0.258386 19.4383L1.5735 14.6566C0.758219 13.2146 0.328153 11.577 0.32915 9.91464C0.331143 4.58415 4.68712 0.248108 10.0398 0.248108C12.6361 0.2491 15.0755 1.25595 16.9089 3.08306C18.7422 4.91067 19.7514 7.33922 19.7504 9.92159C19.7484 15.2516 15.3919 19.5881 10.0398 19.5881C8.45056 19.5876 6.87831 19.1971 5.48296 18.4582L0.561874 19.743C0.540944 19.7489 0.520014 19.7514 0.498585 19.7514Z" fill="white"/>
<path d="M10.0397 0.496229C12.5708 0.497221 14.9459 1.47827 16.7324 3.25824C18.5184 5.03871 19.5022 7.40472 19.5012 9.9216C19.4992 15.1146 15.2543 19.34 10.0397 19.34H10.0357C8.45251 19.3395 6.8962 18.944 5.51431 18.1932L0.498543 19.5033L1.84107 14.6229C1.01283 13.1947 0.57728 11.574 0.577779 9.91415C0.58027 4.72112 4.82412 0.496229 10.0397 0.496229ZM10.0397 0C4.55003 0 0.0819324 4.4472 0.0794407 9.91415C0.0789424 11.585 0.50253 13.2314 1.30585 14.6889L0.0176469 19.3728C-0.0291969 19.544 0.0186435 19.7266 0.144225 19.8526C0.238909 19.9479 0.366982 20 0.498543 20C0.540902 20 0.58326 19.9945 0.625121 19.9836L5.45252 18.7232C6.86182 19.4517 8.44155 19.8362 10.0357 19.8367C15.5294 19.8367 19.9975 15.389 20 9.92209C20.001 7.27273 18.9659 4.78166 17.0857 2.9079C15.2045 1.03364 12.7023 0.000992457 10.0397 0Z" fill="#CFD8DC"/>
<path d="M15.6021 4.38268C14.1171 2.90293 12.1432 2.08762 10.0422 2.08713C5.70465 2.08713 2.17692 5.59844 2.17493 9.91464C2.17443 11.3939 2.59004 12.834 3.37742 14.081L3.56479 14.3772L2.76994 17.2658L5.74652 16.4887L6.03406 16.6584C7.24103 17.372 8.62541 17.7491 10.0367 17.7496H10.0397C14.3742 17.7496 17.902 14.2378 17.9035 9.92109C17.904 7.82949 17.0872 5.86244 15.6021 4.38268Z" fill="#40C351"/>
<path fill-rule="evenodd" clip-rule="evenodd" d="M7.67455 5.97707C7.49764 5.58505 7.31126 5.57711 7.14233 5.57017C7.00429 5.56421 6.84681 5.56471 6.68934 5.56471C6.53186 5.56471 6.27572 5.62376 6.05894 5.85947C5.84216 6.09518 5.2312 6.66435 5.2312 7.82255C5.2312 8.98075 6.07838 10.1002 6.19648 10.257C6.31459 10.4139 7.83203 12.8667 10.235 13.8105C12.2319 14.5946 12.6385 14.4388 13.0721 14.3996C13.5056 14.3604 14.4709 13.8304 14.6677 13.2806C14.8646 12.7307 14.8646 12.2598 14.8058 12.1616C14.7465 12.0633 14.589 12.0048 14.3528 11.8867C14.1166 11.7686 12.9539 11.1994 12.7372 11.121C12.5204 11.0426 12.3629 11.0034 12.2049 11.2391C12.0475 11.4743 11.5945 12.0048 11.4564 12.1616C11.3184 12.3189 11.1804 12.3387 10.9441 12.2206C10.7079 12.1025 9.94648 11.8544 9.04299 11.0525C8.34033 10.4287 7.86591 9.6581 7.72787 9.42239C7.58984 9.18718 7.71292 9.05965 7.83153 8.94204C7.93768 8.83634 8.06774 8.66713 8.18635 8.52967C8.30445 8.39222 8.34382 8.29397 8.42256 8.13716C8.5013 7.97985 8.46193 7.8424 8.40262 7.72479C8.34432 7.60669 7.88485 6.44254 7.67455 5.97707Z" fill="white"/>
</svg>
